<?xml version="1.0" encoding="UTF-8"?>
<!DOCTYPE svg PUBLIC "-//W3C//DTD SVG 1.1//EN" "http://www.w3.org/Graphics/SVG/1.1/DTD/svg11.dtd">
<!-- Creator: CorelDRAW -->
<svg xmlns="http://www.w3.org/2000/svg" xml:space="preserve" width="125.58mm" height="125.58mm" version="1.1" style="shape-rendering:geometricPrecision; text-rendering:geometricPrecision; image-rendering:optimizeQuality; fill-rule:evenodd; clip-rule:evenodd"
viewBox="0 0 12557.96 12557.96"
 xmlns:xlink="http://www.w3.org/1999/xlink"
 xmlns:xodm="http://www.corel.com/coreldraw/odm/2003">
 <defs>
  <style type="text/css">
   <![CDATA[
    .fil0 {fill:#03B8FF}
    .fil1 {fill:#FDFEFF}
   ]]>
  </style>
 </defs>
 <g id="Layer_x0020_1">
  <metadata id="CorelCorpID_0Corel-Layer"/>
  <g id="_2309874823072">
   <path class="fil0" d="M9320.38 5362.15c571.14,-132.7 1019.66,265.2 1119.53,704.04 130.92,576.48 -265,1038.05 -714.12,1132.78 -1218.02,257.29 -1622.64,-1554.22 -405.41,-1836.82zm-3240.35 -1.78c561.85,-125.58 1020.26,266.78 1117.76,710.37 125.58,571.93 -265.2,1028.56 -710.57,1126.85 -571.93,126.37 -1029.15,-265.79 -1127.05,-710.37 -128.94,-585.37 264.81,-1025 719.86,-1126.85zm-3253.6 4.55c1219.21,-280.82 1611.18,1533.65 441.41,1826.34 -1219.6,305.15 -1675.05,-1542.16 -441.41,-1826.34zm-2826.43 717.88l0 43.51c1.78,906.54 62.3,1421.72 358.35,2271.5 146.15,419.46 279.64,659.34 483.93,1036.87 47.26,87.42 90.97,145.95 140.01,227.83 201.33,337.18 582.42,793.42 851.18,1061.98 254.52,254.53 521.69,473.65 815.37,680.9 368.43,259.86 546.03,362.3 956.38,564.22 580.83,286.16 1589.03,588.35 2453.06,588.35l129.73 0c628.29,-1.19 960.73,-14.64 1626.6,-181.16 211.21,-52.8 386.03,-108.57 583.2,-177.19 804.7,-280.43 1298.32,-627.7 1928.19,-1113.21 1258.17,-969.63 2231.96,-2935.99 2231.96,-4586.72l0 -52.8c-4.36,-1105.1 -140.61,-1909.8 -580.24,-2825.24 -679.12,-1414.8 -1638.67,-2333.01 -3025.18,-3033.09 -663.1,-334.82 -1700.57,-588.55 -2452.86,-588.55l-43.9 0c-917.62,1.78 -1431.01,57.16 -2295.63,358.35 -175.02,61.11 -379.91,142 -538.51,221.89l-726.19 402.05c-1030.14,615.05 -1780.85,1579.54 -2315.21,2639.35 -336.2,666.86 -580.24,1706.5 -580.24,2461.16z"/>
   <path class="fil1" d="M2826.43 5364.92c-1233.64,284.18 -778.19,2131.49 441.41,1826.34 1169.77,-292.69 777.8,-2107.16 -441.41,-1826.34z"/>
   <path class="fil1" d="M9320.38 5362.15c-1217.23,282.6 -812.61,2094.11 405.41,1836.82 449.12,-94.73 845.04,-556.3 714.12,-1132.78 -99.87,-438.84 -548.39,-836.74 -1119.53,-704.04z"/>
   <path class="fil1" d="M6080.03 5360.37c-455.05,101.85 -848.8,541.48 -719.86,1126.85 97.9,444.58 555.12,836.74 1127.05,710.37 445.37,-98.29 836.15,-554.92 710.57,-1126.85 -97.5,-443.59 -555.91,-835.95 -1117.76,-710.37z"/>
  </g>
 </g>
</svg>
