<?xml version="1.0" encoding="UTF-8"?>
<!DOCTYPE svg PUBLIC "-//W3C//DTD SVG 1.1//EN" "http://www.w3.org/Graphics/SVG/1.1/DTD/svg11.dtd">
<!-- Creator: CorelDRAW -->
<svg xmlns="http://www.w3.org/2000/svg" xml:space="preserve" width="121.875mm" height="121.803mm" version="1.1" style="shape-rendering:geometricPrecision; text-rendering:geometricPrecision; image-rendering:optimizeQuality; fill-rule:evenodd; clip-rule:evenodd"
viewBox="0 0 4211.61 4209.13"
 xmlns:xlink="http://www.w3.org/1999/xlink"
 xmlns:xodm="http://www.corel.com/coreldraw/odm/2003">
 <defs>
  <style type="text/css">
   <![CDATA[
    .fil5 {fill:#65788E}
    .fil2 {fill:#685E68}
    .fil1 {fill:#9EABB9}
    .fil4 {fill:#EBEEF0}
    .fil0 {fill:#FE636F}
    .fil6 {fill:#FFC338}
    .fil3 {fill:#FFE076}
   ]]>
  </style>
 </defs>
 <g id="Layer_x0020_1">
  <metadata id="CorelCorpID_0Corel-Layer"/>
  <g id="_2310483900128">
   <path class="fil0" d="M1559.28 390.55c0,-82.87 41.35,-68.45 114.04,-67.99l357.54 0.83c140.57,2.62 108.5,-32.85 108.5,440.25 0,75.62 -17.93,70.98 -91.49,71.07 -100.59,0.12 -426.28,7.6 -480.59,-9.25 -16.19,-125.15 -8,-303.51 -8,-434.9zm-260.35 67.83l1.36 275.47c0,89.73 -11.68,379.7 5.84,445.26l70 6.25 490.04 -0.9 140.1 0 388.1 1.82 3.39 -339.26 1.38 -702.36c-22.42,-67.19 -39.34,-77.32 -122.46,-76.54l-781.38 0.23c-187.7,-0.02 -195.07,-4.62 -195.02,195.02 0.02,64.8 2.68,130.46 -1.36,195.02z"/>
   <path class="fil1" d="M3072.42 2001.57c0,410.63 -36.71,373.08 144.1,373.08 -24.97,64.67 -7.74,661.02 -8.46,822.73 -0.51,113.93 5.01,105.21 99.39,231.06 80.73,107.64 85.04,138.25 171.96,6.1 103.74,-157.72 102.44,-98.13 101.78,-228.91 -0.8,-159.19 -15.08,-770.18 8.41,-830.98 160.99,0 127.23,33.64 127.23,-373.08 0,-19.85 -14.07,-33.92 -33.92,-33.92l-576.58 0c-19.85,0 -33.92,14.07 -33.92,33.92z"/>
   <path class="fil1" d="M377.13 2696.86c74.53,18.46 148.35,41.9 226.2,61.04 310.2,76.26 191.94,53.55 257.84,149.18 27.49,39.89 27.62,36.93 18.03,88.89l-96.12 616.63c-56.31,0 -79.18,0.7 -90.27,38.18 -8.4,28.37 -3,90.1 -3,122.93l27.25 23.62c86.36,1.82 576.29,14.98 617.16,-6.66 25.67,-20.38 20.91,-93.54 16.59,-126.81 -6.67,-51.39 -35.28,-51.26 -92.9,-51.26 0,-74.37 -101.75,-606.62 -101.75,-672.45 -40.02,40.23 -89.92,57 -172.28,46.76l55.51 -34.65c52.76,-35.33 83.25,-90.18 81.72,-162.22 -1.15,-54.4 -20.17,-87.31 -44.76,-115.74 -12.95,-14.97 -26.78,-27.04 -45.12,-37.62 -5.71,-3.29 -22.49,-11.02 -28.01,-14.65 -1.72,-1.13 -4,-2.76 -5.53,-3.86l-15.58 -14.58c-21.66,14.93 -85.99,22.98 -114.27,76.31l-456.22 -118.71c2.49,79.36 -8.55,84.28 -34.47,135.67z"/>
   <path class="fil2" d="M723.72 1363.29c-23.93,52.69 -35.33,72.97 -50.88,137.41l560.59 1.24 1 185.91 141.08 0 0.69 -185.53 490.08 0 2.49 185.53 134.92 0 2.87 -185.52 490.35 -0 0.04 185.53 141.08 0 1 -185.53 560.59 -1.49c-10.97,-22.12 -9.12,-44.16 -20.2,-72.58 -8.99,-23.06 -20.79,-43.46 -30.67,-64.14l-512.01 -3.87 -0.06 -177.71 -136.36 3.06 -4.45 177.35 -489.46 0 -0.11 -178.49 -140.1 0 -0.48 178.49 -489.38 0 -0.18 -177.59 -70 -6.25 -72.12 0 -1.21 183.82 -509.08 0.36z"/>
   <path class="fil1" d="M3385.11 4138.3c31.08,-16.43 108.83,-28.46 155.42,-48.96 442.18,-194.55 345.95,-674.93 345.95,-1129.63l-84.85 0c0,112.95 -1.07,226.42 0.14,339.31 0.33,31.2 3.86,55.15 -7.24,77.55l-358.75 506.1c-16.84,23.14 -20.1,37.6 -43.25,52.14 -4.48,27.65 -20.65,47.36 -40.29,65.48l-313.25 -439.05c-33,-46.81 -140.05,-178.04 -142.47,-228.15 -5.68,-117.62 0.46,-253.64 0.46,-373.38l-78.91 0c0,144.15 0,288.29 0,432.43 0,177.48 -10.16,264.91 44.63,396.29 75.45,180.92 269.13,349.87 522.43,349.87z"/>
   <path class="fil3" d="M2397.76 847.01l259.18 1.05 339.16 0.37c20.8,-39.33 45.57,-74.13 67.43,-110.64 17.21,-28.74 59.47,-87.71 68.24,-115.83l-76.31 -0.17 -11.78 3.06 2.84 -248.16 85.25 -0.69c-11.82,-26.13 -27.96,-52.22 -44.05,-77.08 -120.35,-186 -67.62,-158.19 -210.77,-146.25 -61.08,5.1 -446.9,9.28 -477.81,-8.03l-1.38 702.36z"/>
   <path class="fil4" d="M1559.28 390.55c0,131.4 -8.19,309.75 8,434.9 54.31,16.85 380,9.36 480.59,9.25 73.56,-0.09 91.49,4.55 91.49,-71.07 0,-473.1 32.07,-437.63 -108.5,-440.25l-357.54 -0.83c-72.69,-0.46 -114.04,-14.87 -114.04,67.99z"/>
   <path class="fil1" d="M1300.29 733.84l-1.36 -275.47 -268.19 -434.21c-18.11,-22.19 -38.4,-24.11 -77.6,-24.14 -67.95,-0.06 -135.99,0.64 -203.99,0.47 -74.69,-0.19 -137.85,-9.35 -144.13,60.33 -6.88,76.36 55.28,75.88 127.12,75.4 67.81,-0.45 135.74,-0.06 203.56,-0.06l364.6 597.67z"/>
   <path class="fil3" d="M333.68 3452.25l-144.14 -0.28c-157.59,-3.41 -118.71,159.1 -118.71,347.17l390.04 0c0,-153.17 41.34,-352.72 -127.19,-346.89z"/>
   <path class="fil1" d="M2394.37 1186.27l105.93 -0.68 136.36 -3.06c36.02,6.78 144.2,9.14 169.62,-3.43 -13.19,-22.44 -22.38,-51.79 -36.22,-79.2 -15.68,-31.06 -24.87,-48.29 -37.99,-80.71 -21.2,-52.36 -61.89,-113.18 -75.13,-171.13l-259.18 -1.05 -3.39 339.26z"/>
   <polygon class="fil5" points="1234.42,1687.85 1233.43,1501.94 672.84,1500.69 672.84,1687.85 681.32,1687.85 "/>
   <polygon class="fil5" points="2638.03,1687.85 3208.09,1687.85 3199.61,1687.85 3199.61,1500.83 2639.02,1502.32 "/>
   <polygon class="fil1" points="269,2749.41 189.53,2737.14 189.53,3451.97 333.68,3452.25 333.68,2731.09 "/>
   <path class="fil5" d="M3385.11 4138.3c158.36,0 247.97,-36.49 340.18,-101.77 79.47,-56.25 159.27,-142.63 200.02,-240.89 56.88,-137.15 45.89,-211.25 45.89,-395.02 0,-146.97 0,-293.94 0,-440.91l-84.73 0c0,454.7 96.23,935.08 -345.95,1129.63 -46.59,20.5 -124.34,32.54 -155.42,48.96z"/>
   <path class="fil3" d="M1800.56 3545.23l-144.15 -0.24c-35.72,-0.37 -50.92,3.45 -73.31,19.97 -12.41,9.15 -12.62,9.88 -21.85,21.63 -42.53,54.07 -23.54,134.01 -23.54,212.56l385.8 0c8.92,-116.47 25.45,-257.07 -122.95,-253.91z"/>
   <polygon class="fil5" points="2003.69,1687.85 2496.95,1687.85 2496.9,1502.32 2006.56,1502.32 "/>
   <polygon class="fil5" points="1375.51,1687.85 1868.77,1687.85 1866.27,1502.32 1376.2,1502.32 "/>
   <path class="fil5" d="M3392.53 3934.8l-354.08 -500.21c-31.24,-44.23 -51.67,-48.39 -51.17,-126.89 0.73,-115.98 0.36,-232 0.36,-348l-90.67 0c0,119.74 -6.14,255.76 -0.46,373.38 2.42,50.11 109.47,181.34 142.47,228.15l313.25 439.05c19.65,-18.11 35.81,-37.83 40.29,-65.48z"/>
   <polygon class="fil5" points="2500.3,1185.59 2394.37,1186.27 2006.28,1184.45 2006.39,1362.94 2495.85,1362.94 "/>
   <polygon class="fil5" points="1866.17,1184.45 1376.13,1185.35 1376.31,1362.94 1865.69,1362.94 "/>
   <path class="fil5" d="M723.72 1363.29l509.08 -0.36 1.21 -183.82c-123.98,0 -228.51,-8.07 -321.58,27.61 -39.21,15.04 -77.53,38.08 -106.05,63.53 -47.75,42.59 -49.42,52.35 -82.66,93.04z"/>
   <path class="fil5" d="M2636.67 1182.54l0.06 177.71 512.01 3.87c-43.64,-57.54 -67.89,-87.27 -132.02,-129.31 -50.35,-33.01 -130.68,-55.7 -210.44,-55.7 -25.42,12.57 -133.59,10.21 -169.62,3.43z"/>
   <path class="fil1" d="M1178.24 2917.31c45.06,0.87 349.56,89.39 420.67,108.42l57.5 17.72c24.06,-27.62 34.37,-94.35 42.79,-134.62l-486.1 -127.19c0.15,81.65 -20.65,78.79 -34.87,135.67z"/>
   <path class="fil5" d="M269 2749.41l64.68 -18.32c28.51,-15.72 23.01,-6.99 43.45,-34.23 25.92,-51.39 36.97,-56.3 34.47,-135.67 -13.52,-82.96 -66.79,-99.71 -130.44,-127.19 -29.47,23.35 -121.32,44.57 -124.87,152.8 -3.14,95.37 53.93,121.36 101.3,153.76l11.42 8.85z"/>
   <polygon class="fil1" points="1656.41,3544.99 1800.56,3545.23 1800.56,3176.79 1783.53,3173.63 1656.41,3136.5 "/>
   <path class="fil5" d="M1699.21 2908.84c-8.42,40.27 -18.73,107 -42.79,134.62 -3.04,38.43 -20.07,54.83 0,93.04l127.11 37.13c15.43,-67.96 38.4,-143.01 57.92,-214.1 35.18,-128.12 -22.81,-87.13 -117.2,-127.38 -12.76,15.15 -10.91,11.13 -17.6,33.7 -4.81,16.22 -6.24,24.02 -7.44,42.99z"/>
   <path class="fil1" d="M2461.93 4087.43c0,128.2 182.43,52.12 271.69,25.79 117.87,-34.77 56.24,-144.5 -0.35,-144.5 -24.42,0 -125.07,33.55 -154.31,40.71 -48.95,11.98 -117.02,20.84 -117.02,78z"/>
   <path class="fil1" d="M223.45 1170.62c0,62.89 87.52,120.94 138.7,28.48 17.96,-32.42 26.41,-50.71 45.16,-82.03 34.36,-57.43 85.44,-113.27 41.95,-163.65 -102.29,-118.52 -225.81,216.83 -225.81,217.21z"/>
   <path class="fil1" d="M1410.52 4036.55c0,64.24 53.91,72.6 107.2,87.82 30.78,8.79 139.71,39.37 164.13,39.37 29.55,0 67.83,-38.28 67.83,-67.83 0,-66.42 -57.53,-71.98 -110.23,-84.79 -33.44,-8.13 -136.15,-42.39 -161.11,-42.39 -29.55,0 -67.83,38.28 -67.83,67.83z"/>
   <path class="fil1" d="M3971.21 2730.78c0,29.55 38.28,67.83 67.83,67.83 64.24,0 72.6,-53.91 87.82,-107.2 8.79,-30.78 39.37,-139.71 39.37,-164.13 0,-29.55 -38.28,-67.83 -67.83,-67.83 -66.42,0 -71.98,57.53 -84.79,110.23 -8.13,33.44 -42.39,136.15 -42.39,161.11z"/>
   <path class="fil1" d="M3971.21 1475.87c0,24.42 33.55,125.07 40.71,154.31 11.98,48.95 20.84,117.02 78,117.02 97.65,0 73.14,-105.36 55.83,-166.06 -10.9,-38.21 -19.64,-70.34 -30.04,-105.62 -34.77,-117.87 -144.5,-56.24 -144.5,0.35z"/>
   <path class="fil1" d="M3911.85 1246.94c37.81,0 76.31,-34.34 76.31,-67.83 0,-0.05 -106.73,-321.28 -216.93,-234.26 -25.34,20.01 -32.09,49.66 -20.37,80.6l92.95 162.35c12.1,24.18 33.31,59.14 68.04,59.14z"/>
   <path class="fil1" d="M1936.23 4121.35c0,112.39 75.99,84.79 271.33,84.79 80.88,0 97.74,-115.98 11.99,-139.85 -23.93,-6.66 -76.74,4.19 -130.7,4.19 -44.23,0 -63.12,-13.56 -96.79,-4.19 -23.87,6.65 -55.84,30.66 -55.84,55.07z"/>
   <path class="fil1" d="M113.22 1747.2c66.42,0 71.98,-57.53 84.79,-110.23 8.13,-33.44 42.39,-136.15 42.39,-161.11 0,-58.65 -105.15,-109.95 -140.63,-13.44l-53.54 216.75c1.87,31.34 35.24,68.02 66.98,68.02z"/>
   <path class="fil1" d="M3 2001.57c0,195.34 -27.6,271.33 84.79,271.33 75.94,0 50.87,-132.63 50.87,-203.5 0,-24.5 30.9,-135.66 -67.83,-135.66 -41.02,0 -67.83,26.82 -67.83,67.83z"/>
   <path class="fil1" d="M4072.96 2069.41l-4.19 147.66c23.87,85.75 139.85,68.89 139.85,-11.99 0,-195.34 27.6,-271.33 -84.79,-271.33 -22.91,0 -45.82,29.36 -52.97,49.46 -9.93,27.92 2.09,47.86 2.09,86.2z"/>
   <path class="fil1" d="M528.7 738.19c0,41.01 26.82,67.83 67.83,67.83 46.65,0 211.97,-165.33 211.97,-211.97 0,-47.6 -54.21,-109.88 -133.61,-31.86 -23.57,23.16 -38.34,26.61 -59.07,51.15 -20.32,24.05 -22.62,31.39 -46.93,54.82 -20.72,19.96 -40.2,32.89 -40.2,70.03z"/>
   <path class="fil1" d="M3403.11 594.05c0,46.65 165.33,211.97 211.97,211.97 52.72,0 107.11,-61.01 32,-133.74 -53.24,-51.54 -18.85,-29.95 -80.29,-80.81 -11.15,-9.23 -15.88,-14.76 -25.81,-25.06 -81.67,-84.68 -137.86,-20.54 -137.86,27.64z"/>
   <path class="fil5" d="M1156.15 2940.15l22.09 -22.84c14.22,-56.88 35.01,-54.02 34.87,-135.67 2.11,-59.46 -33.68,-102.6 -67.23,-133.88 -45.05,-42 -80.38,-44.18 -163.8,-44.18l15.58 14.58c1.53,1.1 3.8,2.73 5.53,3.86 5.53,3.62 22.31,11.36 28.01,14.65 18.35,10.58 32.18,22.65 45.12,37.62 24.59,28.43 43.61,61.35 44.76,115.74 1.53,72.04 -28.96,126.89 -81.72,162.22l-55.51 34.65c82.36,10.24 132.27,-6.53 172.28,-46.76z"/>
   <polygon class="fil6" points="3131.78,621.96 3131.78,376.02 3046.53,376.7 3043.68,624.86 3055.47,621.8 "/>
   <path class="fil2" d="M189.53 2737.14l79.46 12.27 -11.42 -8.85c-47.36,-32.39 -104.43,-58.38 -101.3,-153.76 3.56,-108.23 95.41,-129.45 124.87,-152.8 -58.63,0 -76.87,3.59 -113.67,28.83 -66.79,45.79 -84.81,124.42 -53.06,198.9 20.16,47.3 36.26,48.68 75.11,75.41z"/>
   <path class="fil2" d="M1724.25 2832.15c94.38,40.25 152.37,-0.74 117.2,127.38 -19.52,71.09 -42.49,146.14 -57.92,214.1l17.03 3.16c44.45,-13 45.04,-65.73 66.09,-142.51 53.52,-195.16 44.36,-174.04 -57.75,-201.86 -28.59,-7.79 -42.23,-16.95 -62.76,-11.6 -39.06,10.17 -6.2,0.88 -21.9,11.33z"/>
  </g>
 </g>
</svg>
